<svg width="24" height="24" viewBox="0 0 24 24" fill="none" xmlns="http://www.w3.org/2000/svg">
<path d="M22.3017 7.34503L14.66 1.2317C13.1667 0.0416983 10.8333 0.0300316 9.35166 1.22003L1.71 7.34503C0.613331 8.22003 -0.0516692 9.97003 0.181664 11.3467L1.65166 20.1434C1.99 22.115 3.82166 23.6667 5.81666 23.6667H18.1833C20.155 23.6667 22.0217 22.08 22.36 20.1317L23.83 11.335C24.04 9.97003 23.375 8.22003 22.3017 7.34503ZM12.875 19C12.875 19.4784 12.4783 19.875 12 19.875C11.5217 19.875 11.125 19.4784 11.125 19V15.5C11.125 15.0217 11.5217 14.625 12 14.625C12.4783 14.625 12.875 15.0217 12.875 15.5V19Z" fill="white"/>
</svg>
