<svg width="92" height="89" viewBox="0 0 92 89" fill="none" xmlns="http://www.w3.org/2000/svg">
<path d="M88.4722 44.5C88.4722 67.3429 69.4166 86 45.7361 86C22.0556 86 3 67.3429 3 44.5C3 21.6571 22.0556 3 45.7361 3C69.4166 3 88.4722 21.6571 88.4722 44.5Z" stroke="#F7F7F7" stroke-width="6"/>
<ellipse cx="45.7361" cy="44.5" rx="40.05" ry="41.1625" transform="rotate(90 45.7361 44.5)" stroke="#38CFFF" stroke-width="6" stroke-dasharray="127 9999"/>
<path d="M62.717 39.981C61.6475 37.6391 60.0929 35.5372 58.1503 33.8067L56.5473 32.3756C56.4929 32.3284 56.4274 32.2948 56.3566 32.2779C56.2857 32.2611 56.2117 32.2614 56.141 32.2788C56.0703 32.2963 56.0051 32.3304 55.9511 32.3781C55.897 32.4258 55.8559 32.4857 55.8312 32.5525L55.1151 34.5517C54.6689 35.8058 53.8481 37.0868 52.6858 38.3463C52.6087 38.4267 52.5206 38.4482 52.46 38.4535C52.3994 38.4589 52.3057 38.4482 52.2231 38.3731C52.146 38.3088 52.1074 38.2123 52.1129 38.1159C52.3168 34.8893 51.3252 31.2501 49.1548 27.2893C47.359 23.9984 44.8637 21.4311 41.7458 19.641L39.4708 18.3386C39.1733 18.167 38.7932 18.3922 38.8097 18.7298L38.9309 21.3025C39.0135 23.0605 38.8042 24.6148 38.3084 25.9065C37.7025 27.4876 36.8321 28.9561 35.7194 30.2746C34.945 31.1909 34.0673 32.0197 33.1028 32.7454C30.7799 34.4829 28.891 36.7091 27.5777 39.2575C26.2676 41.8281 25.5852 44.6582 25.5836 47.5275C25.5836 50.0573 26.0959 52.5066 27.1095 54.8167C28.0882 57.0408 29.5005 59.0593 31.2685 60.7606C33.0533 62.4757 35.1245 63.8263 37.4326 64.7643C39.8233 65.7397 42.3572 66.2328 44.9738 66.2328C47.5904 66.2328 50.1243 65.7397 52.5151 64.7696C54.8175 63.8372 56.9112 62.4773 58.6792 60.7659C60.464 59.0508 61.8631 57.0463 62.8382 54.822C63.8502 52.5183 64.3694 50.0382 64.364 47.5328C64.364 44.9173 63.8132 42.3768 62.717 39.981ZM56.0461 58.1665C53.088 61.0179 49.1603 62.5829 44.9738 62.5829C40.7873 62.5829 36.8597 61.0179 33.9016 58.1665C30.9545 55.3205 29.3295 51.5473 29.3295 47.5328C29.3295 45.2014 29.8693 42.9664 30.9325 40.8868C31.9681 38.8555 33.5105 37.0386 35.3834 35.6397C36.5779 34.751 37.6612 33.7293 38.6114 32.5954C39.9886 30.9607 41.0682 29.1384 41.8174 27.1821C42.1247 26.3751 42.348 25.5402 42.4839 24.6898C43.8115 25.8797 44.9242 27.3161 45.8552 28.999C47.6951 32.3542 48.5434 35.3395 48.3781 37.88C48.3386 38.4784 48.4391 39.0776 48.6719 39.6328C48.9047 40.1879 49.2638 40.6845 49.7222 41.0851C50.1195 41.4343 50.5841 41.7032 51.0891 41.8761C51.5941 42.0491 52.1293 42.1228 52.6638 42.0928C53.749 42.0392 54.746 41.5729 55.4732 40.785C56.2058 39.9864 56.8393 39.1717 57.3681 38.341C58.1393 39.3003 58.7838 40.3455 59.2961 41.471C60.172 43.3898 60.6182 45.4318 60.6182 47.5328C60.6182 51.5473 58.9932 55.3258 56.0461 58.1665Z" fill="#38CFFF"/>
</svg>
