<svg width="85" height="85" viewBox="0 0 85 85" fill="none" xmlns="http://www.w3.org/2000/svg">
<path fill-rule="evenodd" clip-rule="evenodd" d="M72.2546 61.8956C73.3536 60.2132 75.5806 59.5637 77.303 60.5989C78.882 61.548 79.4574 63.5744 78.4749 65.1329C70.9494 77.0699 57.6505 85 42.5 85C27.5893 85 14.4721 77.319 6.88685 65.6968C5.88122 64.1559 6.42196 62.1232 7.98223 61.148C9.68813 60.0818 11.9287 60.6952 13.0552 62.3619C19.439 71.8067 30.2446 78.0157 42.5 78.0157C54.9559 78.0157 65.9143 71.6018 72.2546 61.8956Z" fill="#E8E8E8"/>
<path fill-rule="evenodd" clip-rule="evenodd" d="M37.3622 0.280878C39.3316 0.0434986 40.9821 1.64596 40.9821 3.62957C40.9821 5.50767 39.4964 7.03325 37.6356 7.28817C20.3211 9.66028 6.98214 24.5153 6.98214 42.4867C6.98214 46.3638 7.60297 50.0958 8.7506 53.5888C9.29447 55.2441 8.72853 57.1007 7.25105 58.0243C5.44034 59.1562 3.03531 58.4396 2.33583 56.4221C0.822281 52.0564 0 47.3676 0 42.4867C0 20.7468 16.3129 2.81809 37.3622 0.280878Z" fill="#4EACF4"/>
<path fill-rule="evenodd" clip-rule="evenodd" d="M85 42.4867C85 47.1325 84.2551 51.6042 82.8781 55.7889C82.2115 57.8149 79.8222 58.5704 77.9941 57.4718C76.4987 56.5731 75.9011 54.7233 76.4194 53.0574C77.4582 49.7182 78.0179 46.1679 78.0179 42.4867C78.0179 24.5154 64.679 9.66044 47.3647 7.28821C45.504 7.03327 44.0182 5.5077 44.0182 3.62962C44.0182 1.64599 45.6688 0.0435261 47.6381 0.280922C68.6873 2.81828 85 20.7469 85 42.4867Z" fill="#4FA839"/>
</svg>
