<svg width="35" height="14" viewBox="0 0 35 14" fill="none" xmlns="http://www.w3.org/2000/svg">
<rect width="35" height="14" rx="7" fill="#E6F9E3"/>
<path d="M6.882 10V3.7H9.348C9.798 3.7 10.203 3.775 10.563 3.925C10.929 4.075 11.241 4.291 11.499 4.573C11.757 4.855 11.955 5.188 12.093 5.572C12.231 5.956 12.3 6.382 12.3 6.85C12.3 7.318 12.231 7.747 12.093 8.137C11.955 8.521 11.757 8.854 11.499 9.136C11.247 9.412 10.938 9.625 10.572 9.775C10.206 9.925 9.798 10 9.348 10H6.882ZM7.854 9.163L7.827 9.064H9.303C9.621 9.064 9.903 9.013 10.149 8.911C10.401 8.809 10.611 8.665 10.779 8.479C10.953 8.287 11.085 8.053 11.175 7.777C11.265 7.501 11.31 7.192 11.31 6.85C11.31 6.508 11.265 6.202 11.175 5.932C11.085 5.656 10.953 5.422 10.779 5.23C10.605 5.038 10.395 4.891 10.149 4.789C9.903 4.687 9.621 4.636 9.303 4.636H7.8L7.854 4.555V9.163ZM15.5044 10.09C15.0424 10.09 14.6284 9.985 14.2624 9.775C13.9024 9.559 13.6174 9.268 13.4074 8.902C13.1974 8.53 13.0924 8.107 13.0924 7.633C13.0924 7.159 13.1974 6.739 13.4074 6.373C13.6174 6.001 13.9024 5.71 14.2624 5.5C14.6284 5.284 15.0424 5.176 15.5044 5.176C15.9604 5.176 16.3684 5.284 16.7284 5.5C17.0944 5.71 17.3824 6.001 17.5924 6.373C17.8024 6.739 17.9074 7.159 17.9074 7.633C17.9074 8.107 17.8024 8.53 17.5924 8.902C17.3824 9.268 17.0944 9.559 16.7284 9.775C16.3684 9.985 15.9604 10.09 15.5044 10.09ZM15.5044 9.244C15.7864 9.244 16.0384 9.175 16.2604 9.037C16.4824 8.893 16.6564 8.701 16.7824 8.461C16.9084 8.215 16.9684 7.939 16.9624 7.633C16.9684 7.321 16.9084 7.045 16.7824 6.805C16.6564 6.559 16.4824 6.367 16.2604 6.229C16.0384 6.091 15.7864 6.022 15.5044 6.022C15.2224 6.022 14.9674 6.094 14.7394 6.238C14.5174 6.376 14.3434 6.568 14.2174 6.814C14.0914 7.054 14.0314 7.327 14.0374 7.633C14.0314 7.939 14.0914 8.215 14.2174 8.461C14.3434 8.701 14.5174 8.893 14.7394 9.037C14.9674 9.175 15.2224 9.244 15.5044 9.244ZM18.9175 10V5.275H19.8445V6.247L19.6825 6.355C19.7425 6.145 19.8595 5.953 20.0335 5.779C20.2075 5.599 20.4145 5.455 20.6545 5.347C20.8945 5.233 21.1405 5.176 21.3925 5.176C21.7525 5.176 22.0525 5.248 22.2925 5.392C22.5325 5.53 22.7125 5.743 22.8325 6.031C22.9525 6.319 23.0125 6.682 23.0125 7.12V10H22.0855V7.183C22.0855 6.913 22.0495 6.691 21.9775 6.517C21.9055 6.337 21.7945 6.208 21.6445 6.13C21.4945 6.046 21.3085 6.01 21.0865 6.022C20.9065 6.022 20.7415 6.052 20.5915 6.112C20.4415 6.166 20.3095 6.244 20.1955 6.346C20.0875 6.448 20.0005 6.568 19.9345 6.706C19.8745 6.838 19.8445 6.982 19.8445 7.138V10H19.3855C19.3075 10 19.2295 10 19.1515 10C19.0735 10 18.9955 10 18.9175 10ZM26.4751 10.09C25.9891 10.09 25.5571 9.988 25.1791 9.784C24.8071 9.574 24.5131 9.289 24.2971 8.929C24.0871 8.569 23.9821 8.155 23.9821 7.687C23.9821 7.315 24.0421 6.976 24.1621 6.67C24.2821 6.364 24.4471 6.1 24.6571 5.878C24.8731 5.65 25.1281 5.476 25.4221 5.356C25.7221 5.23 26.0461 5.167 26.3941 5.167C26.7001 5.167 26.9851 5.227 27.2491 5.347C27.5131 5.461 27.7411 5.62 27.9331 5.824C28.1311 6.028 28.2811 6.271 28.3831 6.553C28.4911 6.829 28.5421 7.132 28.5361 7.462L28.5271 7.858H24.6661L24.4591 7.12H27.7261L27.5911 7.273V7.057C27.5731 6.859 27.5071 6.682 27.3931 6.526C27.2791 6.37 27.1351 6.247 26.9611 6.157C26.7871 6.067 26.5981 6.022 26.3941 6.022C26.0701 6.022 25.7971 6.085 25.5751 6.211C25.3531 6.331 25.1851 6.511 25.0711 6.751C24.9571 6.985 24.9001 7.276 24.9001 7.624C24.9001 7.954 24.9691 8.242 25.1071 8.488C25.2451 8.728 25.4401 8.914 25.6921 9.046C25.9441 9.178 26.2351 9.244 26.5651 9.244C26.7991 9.244 27.0151 9.205 27.2131 9.127C27.4171 9.049 27.6361 8.908 27.8701 8.704L28.3381 9.361C28.1941 9.505 28.0171 9.631 27.8071 9.739C27.6031 9.847 27.3841 9.934 27.1501 10C26.9221 10.06 26.6971 10.09 26.4751 10.09Z" fill="#34AF20"/>
</svg>
