<svg width="24" height="24" viewBox="0 0 24 24" fill="none" xmlns="http://www.w3.org/2000/svg">
<path d="M0 7C0 3.13401 3.13401 0 7 0H17C20.866 0 24 3.13401 24 7V17C24 20.866 20.866 24 17 24H7C3.13401 24 0 20.866 0 17V7Z" fill="#D8F6CB"/>
<path d="M0 7C0 3.13401 3.13401 0 7 0H17C20.866 0 24 3.13401 24 7V17C24 20.866 20.866 24 17 24H7C3.13401 24 0 20.866 0 17V7Z" fill="#D8F6CB"/>
<path d="M17.8333 7.82916V14.765C17.8333 15.3308 17.3725 15.85 16.8067 15.92L16.6258 15.9433C15.6692 16.0717 14.3217 16.4683 13.2367 16.9233C12.8575 17.0808 12.4375 16.795 12.4375 16.3808V8.26666C12.4375 8.05082 12.56 7.85249 12.7525 7.74749C13.82 7.16999 15.4358 6.65666 16.5325 6.56332H16.5675C17.2675 6.56332 17.8333 7.12916 17.8333 7.82916Z" fill="#4CC741"/>
<path d="M11.2476 7.74749C10.1801 7.16999 8.56422 6.65666 7.46756 6.56332H7.42672C6.72672 6.56332 6.16089 7.12916 6.16089 7.82916V14.765C6.16089 15.3308 6.62172 15.85 7.18756 15.92L7.36839 15.9433C8.32506 16.0717 9.67256 16.4683 10.7576 16.9233C11.1367 17.0808 11.5567 16.795 11.5567 16.3808V8.26666C11.5567 8.04499 11.4401 7.85249 11.2476 7.74749ZM7.91672 9.51499H9.22922C9.46839 9.51499 9.66672 9.71332 9.66672 9.95249C9.66672 10.1975 9.46839 10.39 9.22922 10.39H7.91672C7.67756 10.39 7.47922 10.1975 7.47922 9.95249C7.47922 9.71332 7.67756 9.51499 7.91672 9.51499ZM9.66672 12.14H7.91672C7.67756 12.14 7.47922 11.9475 7.47922 11.7025C7.47922 11.4633 7.67756 11.265 7.91672 11.265H9.66672C9.90589 11.265 10.1042 11.4633 10.1042 11.7025C10.1042 11.9475 9.90589 12.14 9.66672 12.14Z" fill="#4CC741"/>
</svg>
