<svg width="54" height="46" viewBox="0 0 54 46" fill="none" xmlns="http://www.w3.org/2000/svg">
<path d="M37.0223 16.7578V4.68783C37.0223 3.48783 36.0423 2.59783 34.8523 2.69783H34.7923C32.6923 2.87783 29.5023 3.94783 27.7223 5.06783L27.5523 5.17783C27.2623 5.35783 26.7823 5.35783 26.4923 5.17783L26.2423 5.02783C24.4623 3.91783 21.2823 2.85783 19.1823 2.68783C17.9923 2.58783 17.0223 3.48783 17.0223 4.67783V16.7578C17.0223 17.7178 17.8023 18.6178 18.7623 18.7378L19.0523 18.7778C21.2223 19.0678 24.5723 20.1678 26.4923 21.2178L26.5323 21.2378C26.8023 21.3878 27.2323 21.3878 27.4923 21.2378C29.4123 20.1778 32.7723 19.0678 34.9523 18.7778L35.2823 18.7378C36.2423 18.6178 37.0223 17.7178 37.0223 16.7578Z" stroke="#A2A2A2" stroke-width="1.5" stroke-linecap="round" stroke-linejoin="round"/>
<path d="M27.0223 5.50781V20.5078" stroke="#A2A2A2" stroke-width="1.5" stroke-linecap="round" stroke-linejoin="round"/>
<path d="M22.7723 8.50781H20.5223" stroke="#A2A2A2" stroke-width="1.5" stroke-linecap="round" stroke-linejoin="round"/>
<path d="M23.5223 11.5078H20.5223" stroke="#A2A2A2" stroke-width="1.5" stroke-linecap="round" stroke-linejoin="round"/>
<path d="M7.16685 33.4866V34.5178H0.885605V33.4866H3.3817V32.4202H4.68248V33.4866H7.16685ZM1.42467 36.8616C1.42467 35.7014 2.49693 34.928 4.02623 34.928C5.55553 34.928 6.61021 35.7014 6.61607 36.8616C6.61021 38.0217 5.55553 38.7952 4.02623 38.7952C2.49693 38.7952 1.42467 38.0217 1.42467 36.8616ZM2.17467 40.635V39.592H9.22935V43.0608H7.92857V40.635H2.17467ZM2.69029 36.8616C2.68443 37.4592 3.2235 37.7932 4.02623 37.7874C4.82896 37.7932 5.37389 37.4592 5.37389 36.8616C5.37389 36.2639 4.82896 35.9124 4.02623 35.9124C3.2235 35.9124 2.68443 36.2639 2.69029 36.8616ZM7.92857 39.0999V32.467H9.22935V35.2795H10.7059V36.3459H9.22935V39.0999H7.92857ZM13.9342 38.8186V39.8264H18.5983V38.8186H19.899V42.9319H12.6451V38.8186H13.9342ZM11.485 38.2209V37.1545H21.1412V38.2209H11.485ZM11.9772 35.5725C14.192 35.2971 15.6393 34.1604 15.6451 32.9827V32.5842H16.9811V32.9827C16.9811 34.1252 18.4342 35.3147 20.6256 35.5725L20.1686 36.6038C18.3932 36.3635 16.9928 35.5725 16.3131 34.5002C15.6276 35.5784 14.2213 36.3635 12.4576 36.6038L11.9772 35.5725ZM13.9342 41.9006H18.5983V40.8225H13.9342V41.9006ZM31.2953 32.467V43.0608H30.0531V32.467H31.2953ZM21.9789 39.4866H22.9398V34.7756H22.1898V33.7209H27.0414V34.7756H26.2914V39.3459C26.6254 39.3167 26.9418 39.2815 27.2406 39.2405L27.3226 40.1897C25.6527 40.5295 23.473 40.5706 22.1312 40.5647L21.9789 39.4866ZM24.1117 39.4631C24.434 39.4573 24.7679 39.4456 25.0961 39.428V34.7756H24.1117V39.4631ZM26.7719 37.5413V36.3811H27.9437V32.6897H29.1859V42.5334H27.9437V37.5413H26.7719ZM41.5197 32.467V43.0725H40.2072V32.467H41.5197ZM33.047 36.9788C33.0412 34.6936 34.2072 33.2405 35.8126 33.2405C37.4005 33.2405 38.5724 34.6936 38.5783 36.9788C38.5724 39.2815 37.4005 40.7288 35.8126 40.7288C34.2072 40.7288 33.0412 39.2815 33.047 36.9788ZM34.3009 36.9788C34.3009 38.6077 34.9162 39.551 35.8126 39.5569C36.7033 39.551 37.3126 38.6077 37.3126 36.9788C37.3126 35.3616 36.7033 34.4124 35.8126 34.4124C34.9162 34.4124 34.3009 35.3616 34.3009 36.9788ZM47.3144 35.4788C47.3144 37.2131 48.3339 39.0413 50.0448 39.7561L49.33 40.7874C48.0761 40.2424 47.162 39.135 46.6757 37.7874C46.1894 39.2405 45.2577 40.4592 44.0214 41.0452L43.2714 40.0256C44.9413 39.2522 45.9843 37.2776 45.9901 35.4788V34.5881H43.6581V33.51H49.6347V34.5881H47.3144V35.4788ZM50.8183 43.0608V32.467H52.1308V43.0608H50.8183Z" fill="#979797"/>
</svg>
