<svg width="54" height="46" viewBox="0 0 54 46" fill="none" xmlns="http://www.w3.org/2000/svg">
<path d="M27.227 10.8879C27.127 10.8779 27.007 10.8779 26.897 10.8879C24.517 10.8079 22.627 8.85785 22.627 6.45785C22.627 4.00785 24.607 2.01785 27.067 2.01785C29.517 2.01785 31.507 4.00785 31.507 6.45785C31.497 8.85785 29.607 10.8079 27.227 10.8879Z" stroke="#A2A2A2" stroke-width="1.5" stroke-linecap="round" stroke-linejoin="round"/>
<path d="M22.227 14.5779C19.807 16.1979 19.807 18.8379 22.227 20.4479C24.977 22.2879 29.487 22.2879 32.237 20.4479C34.657 18.8279 34.657 16.1879 32.237 14.5779C29.497 12.7479 24.987 12.7479 22.227 14.5779Z" stroke="#A2A2A2" stroke-width="1.5" stroke-linecap="round" stroke-linejoin="round"/>
<path d="M6.34431 33.4397V40.4944H1.22322V33.4397H6.34431ZM2.69978 39.3108H4.85603V34.6116H2.69978V39.3108ZM7.79744 43.096V32.4319H9.29744V36.4514H10.8678V37.6936H9.29744V43.096H7.79744ZM20.4242 32.4319V43.1194H18.9124V32.4319H20.4242ZM11.8109 36.9788C11.805 34.6526 12.9945 33.1819 14.6351 33.1819C16.2406 33.1819 17.4359 34.6526 17.4359 36.9788C17.4359 39.3225 16.2406 40.7874 14.6351 40.7874C12.9945 40.7874 11.805 39.3225 11.8109 36.9788ZM13.2523 36.9788C13.2464 38.5667 13.8031 39.4339 14.6351 39.428C15.4437 39.4339 15.9886 38.5667 15.9945 36.9788C15.9886 35.3968 15.4437 34.5296 14.6351 34.5296C13.8031 34.5296 13.2464 35.3968 13.2523 36.9788ZM31.4337 32.4319V43.096H29.9923V32.4319H31.4337ZM21.9884 39.428H22.879V34.846H22.1876V33.6389H27.0743V34.846H26.3946V39.2815C26.6935 39.2522 26.9806 39.2229 27.2501 39.1819L27.3556 40.26C25.6681 40.6175 23.4884 40.6585 22.1524 40.6585L21.9884 39.428ZM24.2032 39.4046C24.4786 39.3987 24.754 39.387 25.0353 39.3753V34.846H24.2032V39.4046ZM26.8282 37.6468V36.3108H27.8595V32.6429H29.2774V42.5921H27.8595V37.6468H26.8282ZM41.6463 32.4319V43.1194H40.1346V32.4319H41.6463ZM33.0331 36.9788C33.0272 34.6526 34.2167 33.1819 35.8573 33.1819C37.4628 33.1819 38.6581 34.6526 38.6581 36.9788C38.6581 39.3225 37.4628 40.7874 35.8573 40.7874C34.2167 40.7874 33.0272 39.3225 33.0331 36.9788ZM34.4745 36.9788C34.4686 38.5667 35.0253 39.4339 35.8573 39.428C36.6659 39.4339 37.2108 38.5667 37.2167 36.9788C37.2108 35.3968 36.6659 34.5296 35.8573 34.5296C35.0253 34.5296 34.4686 35.3968 34.4745 36.9788ZM47.4645 35.3382C47.4586 37.0608 48.3492 38.9065 50.1363 39.6507L49.3278 40.8225C48.0738 40.2893 47.2067 39.2288 46.7262 37.9397C46.2457 39.3401 45.361 40.512 44.1012 41.0921L43.2457 39.9085C45.0153 39.1175 45.9293 37.1429 45.9293 35.3382V34.6819H43.6676V33.4632H49.691V34.6819H47.4645V35.3382ZM50.7457 43.096V32.4319H52.2574V43.096H50.7457Z" fill="#A2A2A2"/>
</svg>
