<svg width="14" height="14" viewBox="0 0 14 14" fill="none" xmlns="http://www.w3.org/2000/svg">
<path fill-rule="evenodd" clip-rule="evenodd" d="M7.00002 12.8334C3.78002 12.8334 1.16669 10.2259 1.16669 7.00006C1.16669 3.78006 3.78002 1.16673 7.00002 1.16673C10.2259 1.16673 12.8334 3.78006 12.8334 7.00006C12.8334 10.2259 10.2259 12.8334 7.00002 12.8334ZM8.86085 9.16422C8.93085 9.20506 9.00669 9.22839 9.08835 9.22839C9.23419 9.22839 9.38002 9.15256 9.46169 9.01256C9.58419 8.80839 9.52002 8.54006 9.31002 8.41173L7.23335 7.17506V4.48006C7.23335 4.23506 7.03502 4.04256 6.79585 4.04256C6.55669 4.04256 6.35835 4.23506 6.35835 4.48006V7.42589C6.35835 7.57756 6.44002 7.71756 6.57419 7.79922L8.86085 9.16422Z" fill="#05ACE1"/>
</svg>
