<?xml version="1.0" standalone="no"?>
<!DOCTYPE svg PUBLIC "-//W3C//DTD SVG 20010904//EN"
 "http://www.w3.org/TR/2001/REC-SVG-20010904/DTD/svg10.dtd">
<svg version="1.0" xmlns="http://www.w3.org/2000/svg"
 width="352.000000pt" height="804.000000pt" viewBox="0 0 352.000000 804.000000"
 preserveAspectRatio="xMidYMid meet">

<g transform="translate(0.000000,804.000000) scale(0.100000,-0.100000)"
fill="#000000" stroke="none">
<path d="M1972 7066 c-38 -12 -118 -71 -144 -106 -46 -63 -73 -201 -49 -248 5
-9 17 -36 26 -59 10 -23 33 -58 51 -79 19 -20 34 -40 34 -43 0 -4 8 -16 18
-27 29 -30 162 -224 162 -234 0 -6 4 -10 9 -10 5 0 14 -13 21 -30 7 -16 16
-30 20 -30 4 0 10 -8 14 -17 5 -18 26 -53 36 -63 6 -6 31 -50 62 -111 13 -24
26 -46 29 -49 12 -11 149 -299 149 -314 0 -9 5 -16 10 -16 6 0 10 -6 10 -13 0
-7 11 -37 25 -65 14 -29 25 -58 25 -66 0 -8 5 -18 10 -21 6 -3 10 -13 10 -21
0 -8 8 -33 19 -57 10 -23 27 -69 37 -102 10 -33 22 -64 26 -69 4 -6 8 -22 8
-37 0 -15 5 -31 10 -34 6 -3 10 -16 10 -29 0 -12 4 -26 8 -32 5 -5 17 -47 26
-94 10 -47 22 -96 26 -110 4 -14 13 -52 20 -85 6 -33 16 -80 22 -105 5 -25 14
-76 19 -115 5 -38 13 -99 19 -135 50 -325 44 -856 -15 -1200 -3 -19 -12 -73
-20 -120 -17 -104 -23 -135 -35 -180 -10 -39 -35 -149 -45 -195 -4 -16 -10
-39 -15 -50 -4 -11 -13 -40 -20 -65 -7 -25 -16 -54 -20 -65 -4 -11 -16 -47
-26 -80 -10 -33 -22 -64 -26 -70 -4 -5 -8 -17 -8 -27 0 -10 -4 -18 -10 -18 -5
0 -10 -11 -10 -25 0 -14 -4 -25 -9 -25 -5 0 -11 -13 -14 -29 -4 -16 -16 -51
-28 -78 -12 -26 -28 -64 -36 -83 -34 -79 -147 -305 -155 -308 -4 -2 -8 -12 -8
-23 0 -10 -3 -19 -8 -19 -4 0 -16 -20 -27 -45 -11 -25 -23 -45 -27 -45 -5 0
-8 -7 -8 -15 0 -8 -3 -15 -7 -15 -5 0 -21 -25 -37 -55 -16 -30 -32 -55 -37
-55 -5 0 -9 -5 -9 -10 0 -12 -90 -144 -102 -148 -4 -2 -8 -9 -8 -15 0 -7 -11
-24 -25 -39 -14 -15 -25 -31 -25 -35 0 -4 -15 -25 -33 -45 -18 -21 -48 -63
-67 -95 -30 -50 -35 -67 -39 -134 -4 -100 17 -165 70 -217 21 -21 51 -45 66
-53 15 -8 30 -16 33 -19 14 -16 92 -32 131 -27 66 8 109 18 109 26 0 3 14 12
30 19 28 13 77 56 110 98 30 38 140 195 140 199 0 4 8 15 51 66 9 11 22 33 29
49 7 17 16 30 21 30 5 0 9 7 9 15 0 8 5 15 10 15 6 0 10 7 10 15 0 8 4 15 8
15 4 0 18 19 30 43 12 23 38 69 57 102 19 33 38 68 41 77 4 10 10 18 15 18 5
0 9 7 9 15 0 8 5 15 10 15 6 0 10 7 10 15 0 9 10 32 23 53 13 20 37 66 54 102
97 203 113 239 113 244 0 3 10 28 21 54 44 97 49 110 49 121 0 7 9 31 20 53
11 23 20 49 20 58 0 9 4 20 8 25 8 9 25 62 74 225 6 19 14 44 18 55 14 36 41
142 61 231 5 27 14 67 19 89 38 169 60 320 91 635 17 159 17 626 1 790 -26
275 -65 550 -83 598 -5 13 -9 34 -9 47 0 13 -4 34 -9 47 -5 13 -16 59 -26 103
-19 90 -33 142 -46 167 -5 10 -9 25 -9 33 0 8 -4 23 -9 33 -5 9 -17 46 -27 82
-9 36 -21 69 -26 75 -4 5 -8 19 -8 31 0 13 -4 26 -10 29 -5 3 -10 17 -10 31 0
13 -3 24 -7 24 -5 0 -17 28 -27 63 -11 34 -23 69 -27 77 -16 32 -39 88 -39 95
0 3 -23 54 -51 113 -28 59 -63 132 -77 162 -14 30 -29 57 -32 60 -3 3 -23 40
-44 83 -22 42 -43 77 -48 77 -4 0 -8 8 -8 19 0 10 -7 24 -15 31 -8 7 -15 19
-15 26 0 8 -4 14 -9 14 -5 0 -11 8 -14 18 -8 24 -50 96 -59 100 -5 2 -8 10 -8
18 0 8 -4 14 -10 14 -5 0 -10 7 -10 15 0 8 -4 15 -10 15 -5 0 -10 4 -10 10 0
10 -134 205 -157 228 -7 7 -13 16 -13 20 0 4 -10 19 -23 33 -12 15 -35 44 -52
65 -44 56 -97 104 -115 104 -5 0 -10 3 -10 8 0 27 -161 40 -228 18z"/>
<path d="M1225 6298 c-99 -34 -165 -81 -180 -128 -4 -11 -11 -20 -16 -20 -5 0
-9 -11 -9 -25 0 -14 -4 -25 -10 -25 -6 0 -10 -37 -10 -90 0 -53 4 -90 10 -90
6 0 10 -7 10 -15 0 -14 47 -105 59 -115 11 -9 61 -79 61 -85 0 -3 9 -15 20
-27 11 -12 20 -28 20 -35 0 -7 3 -13 8 -13 4 0 16 -17 27 -37 11 -21 22 -40
25 -43 18 -17 150 -278 150 -296 0 -8 5 -14 10 -14 6 0 10 -7 10 -15 0 -8 8
-29 18 -47 11 -18 27 -58 37 -88 9 -30 21 -59 26 -65 5 -5 9 -19 9 -32 0 -13
5 -23 10 -23 6 0 10 -10 10 -23 0 -13 4 -27 9 -32 4 -6 16 -41 26 -80 9 -38
21 -78 26 -87 5 -10 9 -29 9 -43 0 -14 4 -33 9 -43 11 -20 46 -194 61 -297 51
-349 40 -815 -25 -1090 -9 -38 -20 -90 -25 -115 -5 -25 -13 -61 -19 -80 -5
-19 -16 -62 -25 -95 -16 -65 -41 -146 -57 -182 -10 -24 -16 -41 -44 -113 -33
-85 -172 -379 -184 -390 -3 -3 -13 -18 -21 -35 -8 -16 -17 -32 -20 -35 -3 -3
-14 -22 -25 -43 -11 -21 -28 -47 -38 -57 -9 -11 -17 -21 -17 -23 0 -2 -29 -47
-65 -101 -36 -53 -67 -109 -71 -124 -3 -15 -10 -39 -16 -54 -6 -15 -8 -40 -5
-55 4 -16 9 -44 13 -63 8 -42 47 -105 88 -143 123 -116 346 -90 443 51 18 26
39 56 48 67 28 37 65 96 65 105 0 4 4 10 8 12 4 2 25 33 47 70 22 38 43 68 47
68 4 0 8 9 8 20 0 11 3 20 8 20 4 0 16 20 27 45 11 25 23 45 26 45 3 0 11 16
19 35 8 19 17 35 22 35 4 0 8 4 8 10 0 5 18 47 40 94 22 46 40 87 40 90 0 3
10 28 21 54 41 92 48 108 69 172 11 36 25 73 31 82 5 10 9 27 9 37 0 11 4 23
10 26 5 3 10 15 10 26 0 10 4 27 9 37 14 26 41 126 41 150 0 11 4 23 9 26 5 3
11 20 14 38 3 18 13 69 22 113 97 480 106 963 26 1445 -9 58 -19 108 -50 255
-5 22 -16 65 -25 95 -9 30 -19 70 -22 88 -4 18 -11 35 -15 38 -5 3 -9 18 -9
35 0 16 -4 29 -10 29 -5 0 -10 11 -10 23 0 13 -3 27 -6 30 -10 10 -43 109 -44
130 0 9 -4 17 -10 17 -5 0 -10 7 -10 15 0 8 -4 23 -9 33 -10 20 -22 49 -48
114 -10 27 -21 48 -25 48 -5 0 -8 6 -8 13 0 18 -134 277 -179 347 -33 51 -41
65 -48 80 -14 33 -151 226 -193 272 -47 52 -108 88 -146 88 -13 0 -26 5 -29
10 -8 13 -70 11 -110 -2z"/>
<path d="M385 5461 c-77 -20 -165 -84 -180 -131 -4 -11 -11 -20 -16 -20 -5 0
-9 -11 -9 -25 0 -14 -4 -25 -10 -25 -13 0 -13 -154 0 -180 6 -11 15 -29 20
-40 6 -11 10 -26 10 -34 0 -8 3 -16 8 -18 11 -5 67 -96 93 -153 13 -27 27 -51
31 -53 4 -2 8 -11 8 -21 0 -9 4 -21 8 -27 5 -5 21 -43 36 -84 15 -41 31 -84
36 -95 20 -48 42 -132 65 -240 47 -224 54 -547 16 -765 -22 -123 -32 -170 -41
-195 -6 -15 -10 -37 -10 -51 0 -13 -4 -24 -10 -24 -5 0 -10 -11 -10 -24 0 -14
-5 -28 -10 -31 -6 -3 -10 -17 -10 -30 0 -13 -4 -27 -10 -30 -5 -3 -10 -13 -10
-21 0 -8 -16 -47 -35 -87 -19 -39 -35 -77 -35 -84 0 -6 -3 -13 -7 -15 -5 -1
-21 -28 -37 -58 -103 -200 -123 -251 -112 -294 3 -14 9 -38 12 -54 15 -74 86
-161 163 -199 53 -26 192 -25 249 2 23 11 42 23 42 27 0 5 5 8 11 8 17 0 89
88 89 108 0 6 3 12 7 14 11 4 38 50 76 128 17 36 34 67 37 70 3 3 14 25 24 50
10 25 22 53 27 62 5 10 9 25 9 33 0 8 5 15 10 15 6 0 10 7 10 15 0 8 4 23 10
33 14 26 60 166 60 185 0 9 5 17 10 17 6 0 10 13 10 29 0 17 4 32 9 35 5 3 11
20 14 38 3 18 13 69 22 113 77 363 70 864 -15 1180 -32 119 -42 155 -60 200
-4 11 -15 45 -24 75 -10 30 -21 64 -26 75 -32 76 -72 164 -116 250 -109 216
-160 282 -250 325 -48 24 -141 34 -189 21z"/>
</g>
</svg>
